<svg width="40" height="40" viewBox="0 0 40 40" fill="none" xmlns="http://www.w3.org/2000/svg">
<rect width="40" height="40" fill="#F7CD46"/>
<path d="M11.875 15C11.875 14.6548 12.1548 14.375 12.5 14.375H27.5C27.8452 14.375 28.125 14.6548 28.125 15C28.125 15.3452 27.8452 15.625 27.5 15.625H12.5C12.1548 15.625 11.875 15.3452 11.875 15Z" fill="#111827"/>
<path d="M11.875 20C11.875 19.6548 12.1548 19.375 12.5 19.375H19.1667C19.5118 19.375 19.7917 19.6548 19.7917 20C19.7917 20.3452 19.5118 20.625 19.1667 20.625H12.5C12.1548 20.625 11.875 20.3452 11.875 20Z" fill="#111827"/>
<path d="M12.5 24.375C12.1548 24.375 11.875 24.6548 11.875 25C11.875 25.3452 12.1548 25.625 12.5 25.625H23.3333C23.6785 25.625 23.9583 25.3452 23.9583 25C23.9583 24.6548 23.6785 24.375 23.3333 24.375H12.5Z" fill="#111827"/>
</svg>
