<svg width="333" height="206" viewBox="0 0 333 206" fill="none" xmlns="http://www.w3.org/2000/svg">
<path d="M91.608 98.0232L54.4478 112.185H0V89.3162L40.3787 2.70109H68.1279L27.7492 89.3162H55.6763V56.903H80.2237V89.3162H91.608V98.0232Z" fill="#1F2937"/>
<path d="M207.983 53.6713V48.0795C207.983 38.4756 205.997 30.0722 202.024 22.8693C198.051 15.6663 192.507 10.0541 185.392 6.03243C178.277 2.01081 169.976 0 160.489 0C151.002 0 142.701 2.01081 135.586 6.03243C128.471 10.0541 122.927 15.6663 118.954 22.8693C114.982 30.0722 112.995 38.4756 112.995 48.0795V86.9752C112.995 87.9454 113.015 88.9034 113.056 89.8491L137.72 80.4492V46.0987C137.72 41.7769 138.728 37.8753 140.744 34.3939C142.76 30.9125 145.488 28.1514 148.927 26.1106C152.366 24.0697 156.22 23.0493 160.489 23.0493C164.758 23.0493 168.612 24.0697 172.051 26.1106C175.49 28.1514 178.218 30.9125 180.234 34.3939C182.25 37.8753 183.258 41.7769 183.258 46.0987V63.0944L207.983 53.6713Z" fill="#1F2937"/>
<path d="M287.855 23.231L254.11 36.0915L269.676 2.70109H297.426L287.855 23.231Z" fill="#1F2937"/>
<path d="M69.7744 119.687L70.9611 120.009L65.8047 139.49L89.5157 145.922L94.672 126.441L105.668 129.423L109.289 115.744L69.7744 119.687Z" fill="#1F2937"/>
<path d="M132.096 113.468C130.293 121.691 130.289 129.398 132.083 136.588C134.079 144.587 137.999 151.46 143.843 157.209C149.688 162.958 157.192 167.075 166.355 169.561C175.519 172.047 184.051 172.279 191.952 170.259C199.853 168.239 206.643 164.27 212.322 158.354C218.001 152.437 222.068 144.84 224.523 135.564L233.038 103.395L206.746 106.018L200.18 130.825C199.075 134.999 197.104 138.504 194.267 141.338C191.429 144.173 188.089 146.125 184.245 147.196C180.402 148.266 176.418 148.242 172.294 147.123C168.171 146.005 164.709 144.009 161.909 141.137C159.109 138.264 157.18 134.883 156.123 130.992C155.066 127.101 155.09 123.068 156.195 118.894L158.324 110.85L132.096 113.468Z" fill="#1F2937"/>
<path d="M282.088 98.4996L244.514 143.41L238.667 165.5L292.446 180.087L287.289 199.568L311 206L316.157 186.519L327.153 189.502L333 167.412L322.004 164.429L330.291 133.12L306.58 126.689L298.293 157.997L271.317 150.68L317.971 94.9188L282.088 98.4996Z" fill="#1F2937"/>
</svg>
