<svg width="324" height="430" viewBox="0 0 324 430" fill="none" xmlns="http://www.w3.org/2000/svg">
<path d="M423.147 415.31C413.673 424.786 401.09 430 387.706 430C374.322 430 361.739 424.786 352.265 415.31L243.586 306.611C225.587 312.164 206.855 314.978 188.019 314.959C163.33 315.034 138.872 310.21 116.06 300.764C93.2491 291.319 72.5384 277.44 55.1277 259.932C28.8431 233.717 10.9261 200.291 3.64453 163.885C-3.63702 127.48 0.0444031 89.732 14.2227 55.4202L28.5094 20.6246L134.882 126.992L188.044 73.7957L81.6958 -32.5717L116.51 -46.886C139.224 -56.2384 163.555 -61.0339 188.119 -60.9998C238.323 -60.9998 285.519 -41.4461 320.985 -5.94848C345.222 18.2132 362.385 48.5498 370.612 81.7726C378.838 114.995 377.816 149.837 367.655 182.52L476.333 291.218C485.725 300.624 491 313.373 491 326.666C491 339.959 485.725 352.708 476.333 362.113L423.147 415.31ZM309.154 194.929L315.521 179.486C325.931 154.326 328.639 126.641 323.303 99.94C317.966 73.2388 304.825 48.7229 285.544 29.499C271.215 15.0747 253.854 4.02444 234.721 -2.84867C215.588 -9.72178 195.165 -12.2451 174.935 -10.2353L258.976 73.8208L134.932 197.912L50.8417 113.806C48.8806 134.052 51.4308 154.481 58.3088 173.623C65.1867 192.765 76.2213 210.144 90.6187 224.51C129.468 263.367 189.974 275.325 240.604 254.492L256.018 248.1L387.706 379.862H387.681L387.706 404.931V379.862L440.892 326.666L309.154 194.929Z" fill="#F3F4F6"/>
</svg>
