<svg width="541" height="560" viewBox="0 0 541 560" fill="none" xmlns="http://www.w3.org/2000/svg">
<path d="M611.021 635.787C597.34 649.471 579.171 657 559.844 657C540.517 657 522.349 649.471 508.668 635.787L351.737 478.827C325.746 486.846 298.697 490.909 271.497 490.881C235.847 490.99 200.53 484.024 167.59 470.384C134.651 456.745 104.745 436.705 79.6039 411.424C41.6492 373.569 15.7771 325.301 5.26263 272.732C-5.25183 220.163 0.0640869 165.656 20.5375 116.11L41.1673 65.8652L194.769 219.459L271.534 142.644L117.968 -10.9497L168.24 -31.6195C201.039 -45.1242 236.172 -52.0489 271.642 -51.9997C344.136 -51.9997 412.287 -23.7643 463.499 27.4939C498.498 62.3832 523.281 106.189 535.16 154.162C547.04 202.136 545.563 252.447 530.89 299.64L687.822 456.601C701.383 470.182 709 488.592 709 507.786C709 526.981 701.383 545.391 687.822 558.972L611.021 635.787ZM446.417 317.559L455.609 295.26C470.641 258.929 474.552 218.952 466.846 180.396C459.14 141.84 440.164 106.439 412.323 78.6798C391.633 57.8512 366.563 41.8948 338.936 31.97C311.308 22.0453 281.817 18.4017 252.605 21.3039L373.959 142.68L194.841 321.867L73.415 200.418C70.5833 229.653 74.2657 259.152 84.1974 286.793C94.129 314.434 110.063 339.53 130.853 360.274C186.951 416.383 274.32 433.65 347.43 403.569L369.688 394.338L559.844 584.601H559.808L559.844 620.801V584.601L636.645 507.786L446.417 317.559Z" fill="#F3F4F6"/>
</svg>
