<svg width="32" height="32" viewBox="0 0 32 32" fill="none" xmlns="http://www.w3.org/2000/svg">
<path fill-rule="evenodd" clip-rule="evenodd" d="M32 0H0V32H32V0ZM20.2664 12.1291C20.2664 14.4053 18.3485 16.2569 15.9891 16.2569C13.6303 16.2569 11.7119 14.4053 11.7119 12.1291C11.7119 9.85207 13.6303 8 15.9891 8C18.3485 8 20.2664 9.85207 20.2664 12.1291ZM17.7306 19.6269C18.6013 19.4354 19.441 19.1029 20.2144 18.634C20.7997 18.2778 20.976 17.531 20.6072 16.966C20.2387 16.3998 19.4656 16.2293 18.8792 16.5855C17.1272 17.6491 14.8714 17.6488 13.1204 16.5855C12.5341 16.2293 11.7607 16.3998 11.3929 16.966C11.0241 17.5315 11.1999 18.2778 11.7852 18.634C12.5586 19.1024 13.3983 19.4354 14.269 19.6269L11.8776 21.9352C11.3888 22.4076 11.3888 23.1734 11.8781 23.6457C12.1231 23.8817 12.4435 23.9998 12.7639 23.9998C13.0848 23.9998 13.4058 23.8817 13.6507 23.6457L15.9996 21.3774L18.3505 23.6457C18.8393 24.1181 19.6324 24.1181 20.1218 23.6457C20.6116 23.1734 20.6116 22.4071 20.1218 21.9352L17.7306 19.6269ZM17.7608 12.129C17.7608 11.1863 16.9664 10.4198 15.9898 10.4198C15.0139 10.4198 14.2188 11.1863 14.2188 12.129C14.2188 13.071 15.0139 13.8381 15.9898 13.8381C16.9664 13.8381 17.7608 13.071 17.7608 12.129Z" fill="#D5D5D6"/>
</svg>
