<svg width="24" height="24" viewBox="0 0 24 24" fill="none" xmlns="http://www.w3.org/2000/svg">
<path d="M14.5302 18.5303C14.8231 18.2374 14.8231 17.7626 14.5302 17.4697L9.66155 12.601C9.45479 12.3943 9.33203 12.2707 9.24818 12.1719C9.19701 12.1116 9.17959 12.0822 9.17526 12.074C9.16033 12.0258 9.16033 11.9742 9.17526 11.926C9.17959 11.9178 9.19701 11.8884 9.24818 11.8281C9.33203 11.7293 9.45479 11.6057 9.66155 11.399L14.5302 6.53033C14.8231 6.23744 14.8231 5.76256 14.5302 5.46967C14.2373 5.17678 13.7624 5.17678 13.4695 5.46967L8.58235 10.3568C8.40027 10.5389 8.23304 10.7061 8.10467 10.8573C7.96628 11.0203 7.82959 11.2134 7.74971 11.4592C7.63551 11.8107 7.63551 12.1893 7.74971 12.5408C7.82959 12.7866 7.96628 12.9797 8.10467 13.1427C8.23304 13.2939 8.40027 13.4611 8.58235 13.6432C8.58852 13.6493 8.59469 13.6555 8.60089 13.6617L13.4695 18.5303C13.7624 18.8232 14.2373 18.8232 14.5302 18.5303Z" fill="#4B5563"/>
</svg>
