<svg width="24" height="24" viewBox="0 0 24 24" fill="none" xmlns="http://www.w3.org/2000/svg">
<path d="M9.46982 5.46967C9.17693 5.76256 9.17693 6.23744 9.46982 6.53033L14.3384 11.399C14.5452 11.6057 14.668 11.7293 14.7518 11.8281C14.803 11.8884 14.8204 11.9178 14.8247 11.926C14.8397 11.9742 14.8397 12.0258 14.8247 12.074C14.8204 12.0822 14.803 12.1116 14.7518 12.1719C14.668 12.2707 14.5452 12.3943 14.3384 12.601L9.46982 17.4697C9.17693 17.7626 9.17693 18.2374 9.46982 18.5303C9.76271 18.8232 10.2376 18.8232 10.5305 18.5303L15.4176 13.6432C15.5997 13.4611 15.767 13.2939 15.8953 13.1427C16.0337 12.9797 16.1704 12.7866 16.2503 12.5408C16.3645 12.1893 16.3645 11.8107 16.2503 11.4592C16.1704 11.2134 16.0337 11.0203 15.8953 10.8573C15.767 10.7061 15.5997 10.5389 15.4176 10.3568C15.4115 10.3507 15.4053 10.3445 15.3991 10.3383L10.5305 5.46967C10.2376 5.17678 9.76271 5.17678 9.46982 5.46967Z" fill="white"/>
</svg>
