<svg width="20" height="20" viewBox="0 0 20 20" fill="none" xmlns="http://www.w3.org/2000/svg">
<path d="M10.0003 3.5415C10.3455 3.5415 10.6253 3.82133 10.6253 4.1665V9.37484H15.8337C16.1788 9.37484 16.4587 9.65466 16.4587 9.99984C16.4587 10.345 16.1788 10.6248 15.8337 10.6248H10.6253V15.8332C10.6253 16.1783 10.3455 16.4582 10.0003 16.4582C9.65515 16.4582 9.37533 16.1783 9.37533 15.8332V10.6248H4.16699C3.82181 10.6248 3.54199 10.345 3.54199 9.99984C3.54199 9.65466 3.82181 9.37484 4.16699 9.37484H9.37533V4.1665C9.37533 3.82133 9.65515 3.5415 10.0003 3.5415Z" fill="#9CA3AF"/>
</svg>
